<mxfile host="Electron" agent="Mozilla/5.0 (Macintosh; Intel Mac OS X 10_15_7) AppleWebKit/537.36 (KHTML, like Gecko) draw.io/26.0.16 Chrome/132.0.6834.196 Electron/34.2.0 Safari/537.36" version="26.0.16">
  <diagram name="Level 1 ERD" id="WCqasIou2FfHLaZPjtHS">
    <mxGraphModel dx="1193" dy="778" grid="1" gridSize="10" guides="1" tooltips="1" connect="1" arrows="1" fold="1" page="1" pageScale="1" pageWidth="3300" pageHeight="2339" math="0" shadow="0">
      <root>
        <mxCell id="0" />
        <mxCell id="1" parent="0" />
        <mxCell id="sUTxGVXDvffoVRoWjCSP-90" value="Online Order Processing System - Level 1 DFD" style="text;html=1;strokeColor=none;fillColor=none;align=center;verticalAlign=middle;whiteSpace=wrap;rounded=0;fontSize=16;fontStyle=1" parent="1" vertex="1">
          <mxGeometry x="185" y="50" width="500" height="30" as="geometry" />
        </mxCell>
        <mxCell id="sUTxGVXDvffoVRoWjCSP-91" value="Customer" style="html=1;dashed=0;whitespace=wrap;shape=mxgraph.dfd.externalEntity;fillColor=#f5f5f5;strokeColor=#666666;fontColor=#333333;" parent="1" vertex="1">
          <mxGeometry x="20" y="230" width="100" height="60" as="geometry" />
        </mxCell>
        <mxCell id="sUTxGVXDvffoVRoWjCSP-92" value="1" style="text;html=1;align=center;verticalAlign=middle;resizable=0;points=[];autosize=1;strokeColor=none;fillColor=none;" parent="sUTxGVXDvffoVRoWjCSP-91" vertex="1">
          <mxGeometry x="40" width="20" height="20" as="geometry" />
        </mxCell>
        <mxCell id="sUTxGVXDvffoVRoWjCSP-93" value="Shipping&#xa;Department" style="html=1;dashed=0;whitespace=wrap;shape=mxgraph.dfd.externalEntity;fillColor=#f5f5f5;strokeColor=#666666;fontColor=#333333;" parent="1" vertex="1">
          <mxGeometry x="30" y="430" width="100" height="60" as="geometry" />
        </mxCell>
        <mxCell id="sUTxGVXDvffoVRoWjCSP-94" value="2" style="text;html=1;align=center;verticalAlign=middle;resizable=0;points=[];autosize=1;strokeColor=none;fillColor=none;" parent="sUTxGVXDvffoVRoWjCSP-93" vertex="1">
          <mxGeometry x="40" width="20" height="20" as="geometry" />
        </mxCell>
        <mxCell id="sUTxGVXDvffoVRoWjCSP-95" value="Payment&#xa;Gateway" style="html=1;dashed=0;whitespace=wrap;shape=mxgraph.dfd.externalEntity;fillColor=#f5f5f5;strokeColor=#666666;fontColor=#333333;" parent="1" vertex="1">
          <mxGeometry x="680" y="230" width="100" height="60" as="geometry" />
        </mxCell>
        <mxCell id="sUTxGVXDvffoVRoWjCSP-96" value="3" style="text;html=1;align=center;verticalAlign=middle;resizable=0;points=[];autosize=1;strokeColor=none;fillColor=none;" parent="sUTxGVXDvffoVRoWjCSP-95" vertex="1">
          <mxGeometry x="40" width="20" height="20" as="geometry" />
        </mxCell>
        <mxCell id="sUTxGVXDvffoVRoWjCSP-97" value="Inventory&#xa;Manager" style="html=1;dashed=0;whitespace=wrap;shape=mxgraph.dfd.externalEntity;fillColor=#f5f5f5;strokeColor=#666666;fontColor=#333333;" parent="1" vertex="1">
          <mxGeometry x="680" y="430" width="100" height="60" as="geometry" />
        </mxCell>
        <mxCell id="sUTxGVXDvffoVRoWjCSP-98" value="4" style="text;html=1;align=center;verticalAlign=middle;resizable=0;points=[];autosize=1;strokeColor=none;fillColor=none;" parent="sUTxGVXDvffoVRoWjCSP-97" vertex="1">
          <mxGeometry x="40" width="20" height="20" as="geometry" />
        </mxCell>
        <mxCell id="sUTxGVXDvffoVRoWjCSP-99" value="1.0&#xa;Process&#xa;Customer&#xa;Orders" style="shape=ellipse;html=1;dashed=0;whitespace=wrap;aspect=fixed;perimeter=ellipsePerimeter;fillColor=#d5e8d4;strokeColor=#82b366;" parent="1" vertex="1">
          <mxGeometry x="260" y="220" width="80" height="80" as="geometry" />
        </mxCell>
        <mxCell id="sUTxGVXDvffoVRoWjCSP-100" value="2.0&#xa;Process&#xa;Payment" style="shape=ellipse;html=1;dashed=0;whitespace=wrap;aspect=fixed;perimeter=ellipsePerimeter;fillColor=#d5e8d4;strokeColor=#82b366;" parent="1" vertex="1">
          <mxGeometry x="480" y="210" width="80" height="80" as="geometry" />
        </mxCell>
        <mxCell id="sUTxGVXDvffoVRoWjCSP-101" value="3.0&#xa;Update&#xa;Inventory" style="shape=ellipse;html=1;dashed=0;whitespace=wrap;aspect=fixed;perimeter=ellipsePerimeter;fillColor=#d5e8d4;strokeColor=#82b366;" parent="1" vertex="1">
          <mxGeometry x="520" y="420" width="80" height="80" as="geometry" />
        </mxCell>
        <mxCell id="sUTxGVXDvffoVRoWjCSP-102" value="4.0&#xa;Generate&#xa;Shipping&#xa;Order" style="shape=ellipse;html=1;dashed=0;whitespace=wrap;aspect=fixed;perimeter=ellipsePerimeter;fillColor=#d5e8d4;strokeColor=#82b366;" parent="1" vertex="1">
          <mxGeometry x="260" y="420" width="80" height="80" as="geometry" />
        </mxCell>
        <mxCell id="sUTxGVXDvffoVRoWjCSP-103" value="D1 Customer Database" style="html=1;dashed=0;whitespace=wrap;shape=mxgraph.dfd.dataStore;fillColor=#dae8fc;strokeColor=#6c8ebf;" parent="1" vertex="1">
          <mxGeometry x="345" y="140" width="180" height="40" as="geometry" />
        </mxCell>
        <mxCell id="sUTxGVXDvffoVRoWjCSP-104" value="D2 Order Database" style="html=1;dashed=0;whitespace=wrap;shape=mxgraph.dfd.dataStore;fillColor=#dae8fc;strokeColor=#6c8ebf;" parent="1" vertex="1">
          <mxGeometry x="345" y="330" width="180" height="40" as="geometry" />
        </mxCell>
        <mxCell id="sUTxGVXDvffoVRoWjCSP-105" value="D3 Inventory Database" style="html=1;dashed=0;whitespace=wrap;shape=mxgraph.dfd.dataStore;fillColor=#dae8fc;strokeColor=#6c8ebf;" parent="1" vertex="1">
          <mxGeometry x="345" y="510" width="180" height="40" as="geometry" />
        </mxCell>
        <mxCell id="sUTxGVXDvffoVRoWjCSP-106" value="Order Details" style="endArrow=classic;html=1;rounded=0;exitX=1;exitY=0.5;exitDx=0;exitDy=0;exitPerimeter=0;entryX=0;entryY=0.5;entryDx=0;entryDy=0;" parent="1" source="sUTxGVXDvffoVRoWjCSP-91" target="sUTxGVXDvffoVRoWjCSP-99" edge="1">
          <mxGeometry width="50" height="50" relative="1" as="geometry">
            <mxPoint x="410" y="440" as="sourcePoint" />
            <mxPoint x="460" y="390" as="targetPoint" />
          </mxGeometry>
        </mxCell>
        <mxCell id="sUTxGVXDvffoVRoWjCSP-107" value="Customer Info" style="endArrow=classic;html=1;rounded=0;exitX=0.5;exitY=0;exitDx=0;exitDy=0;entryX=0.17;entryY=1;entryDx=0;entryDy=0;entryPerimeter=0;" parent="1" source="sUTxGVXDvffoVRoWjCSP-99" target="sUTxGVXDvffoVRoWjCSP-103" edge="1">
          <mxGeometry width="50" height="50" relative="1" as="geometry">
            <mxPoint x="410" y="440" as="sourcePoint" />
            <mxPoint x="460" y="390" as="targetPoint" />
          </mxGeometry>
        </mxCell>
        <mxCell id="sUTxGVXDvffoVRoWjCSP-108" value="Payment Request" style="endArrow=classic;html=1;rounded=0;exitX=1;exitY=0.5;exitDx=0;exitDy=0;entryX=0;entryY=0.5;entryDx=0;entryDy=0;" parent="1" source="sUTxGVXDvffoVRoWjCSP-99" target="sUTxGVXDvffoVRoWjCSP-100" edge="1">
          <mxGeometry width="50" height="50" relative="1" as="geometry">
            <mxPoint x="410" y="440" as="sourcePoint" />
            <mxPoint x="460" y="390" as="targetPoint" />
          </mxGeometry>
        </mxCell>
        <mxCell id="sUTxGVXDvffoVRoWjCSP-109" value="Process Payment" style="endArrow=classic;html=1;rounded=0;exitX=1;exitY=0.5;exitDx=0;exitDy=0;entryX=0;entryY=0.5;entryDx=0;entryDy=0;entryPerimeter=0;" parent="1" source="sUTxGVXDvffoVRoWjCSP-100" target="sUTxGVXDvffoVRoWjCSP-95" edge="1">
          <mxGeometry width="50" height="50" relative="1" as="geometry">
            <mxPoint x="410" y="440" as="sourcePoint" />
            <mxPoint x="460" y="390" as="targetPoint" />
          </mxGeometry>
        </mxCell>
        <mxCell id="sUTxGVXDvffoVRoWjCSP-110" value="Payment Status" style="endArrow=classic;html=1;rounded=0;exitX=0;exitY=0.75;exitDx=0;exitDy=0;exitPerimeter=0;entryX=1;entryY=0.75;entryDx=0;entryDy=0;" parent="1" source="sUTxGVXDvffoVRoWjCSP-95" target="sUTxGVXDvffoVRoWjCSP-100" edge="1">
          <mxGeometry width="50" height="50" relative="1" as="geometry">
            <mxPoint x="410" y="440" as="sourcePoint" />
            <mxPoint x="460" y="390" as="targetPoint" />
          </mxGeometry>
        </mxCell>
        <mxCell id="sUTxGVXDvffoVRoWjCSP-111" value="Payment Info" style="endArrow=classic;html=1;rounded=0;exitX=0.5;exitY=1;exitDx=0;exitDy=0;entryX=0.75;entryY=0;entryDx=0;entryDy=0;" parent="1" source="sUTxGVXDvffoVRoWjCSP-100" target="sUTxGVXDvffoVRoWjCSP-104" edge="1">
          <mxGeometry width="50" height="50" relative="1" as="geometry">
            <mxPoint x="410" y="440" as="sourcePoint" />
            <mxPoint x="460" y="390" as="targetPoint" />
          </mxGeometry>
        </mxCell>
        <mxCell id="sUTxGVXDvffoVRoWjCSP-112" value="Order Info" style="endArrow=classic;html=1;rounded=0;exitX=0.5;exitY=1;exitDx=0;exitDy=0;entryX=0.25;entryY=0;entryDx=0;entryDy=0;" parent="1" source="sUTxGVXDvffoVRoWjCSP-99" target="sUTxGVXDvffoVRoWjCSP-104" edge="1">
          <mxGeometry width="50" height="50" relative="1" as="geometry">
            <mxPoint x="410" y="440" as="sourcePoint" />
            <mxPoint x="460" y="390" as="targetPoint" />
          </mxGeometry>
        </mxCell>
        <mxCell id="sUTxGVXDvffoVRoWjCSP-113" value="Order Details" style="endArrow=classic;html=1;rounded=0;exitX=0.75;exitY=1;exitDx=0;exitDy=0;entryX=0.5;entryY=0;entryDx=0;entryDy=0;" parent="1" source="sUTxGVXDvffoVRoWjCSP-104" target="sUTxGVXDvffoVRoWjCSP-101" edge="1">
          <mxGeometry width="50" height="50" relative="1" as="geometry">
            <mxPoint x="410" y="440" as="sourcePoint" />
            <mxPoint x="460" y="390" as="targetPoint" />
          </mxGeometry>
        </mxCell>
        <mxCell id="sUTxGVXDvffoVRoWjCSP-114" value="Stock Updates" style="endArrow=classic;html=1;rounded=0;exitX=0.5;exitY=1;exitDx=0;exitDy=0;entryX=0.75;entryY=0;entryDx=0;entryDy=0;" parent="1" source="sUTxGVXDvffoVRoWjCSP-101" target="sUTxGVXDvffoVRoWjCSP-105" edge="1">
          <mxGeometry width="50" height="50" relative="1" as="geometry">
            <mxPoint x="410" y="440" as="sourcePoint" />
            <mxPoint x="460" y="390" as="targetPoint" />
          </mxGeometry>
        </mxCell>
        <mxCell id="sUTxGVXDvffoVRoWjCSP-115" value="Inventory Reports" style="endArrow=classic;html=1;rounded=0;exitX=1;exitY=0.5;exitDx=0;exitDy=0;entryX=0;entryY=0.5;entryDx=0;entryDy=0;entryPerimeter=0;" parent="1" source="sUTxGVXDvffoVRoWjCSP-101" target="sUTxGVXDvffoVRoWjCSP-97" edge="1">
          <mxGeometry width="50" height="50" relative="1" as="geometry">
            <mxPoint x="410" y="440" as="sourcePoint" />
            <mxPoint x="460" y="390" as="targetPoint" />
          </mxGeometry>
        </mxCell>
        <mxCell id="sUTxGVXDvffoVRoWjCSP-116" value="Restock Info" style="endArrow=classic;html=1;rounded=0;exitX=0;exitY=0.25;exitDx=0;exitDy=0;exitPerimeter=0;entryX=1;entryY=0.25;entryDx=0;entryDy=0;" parent="1" source="sUTxGVXDvffoVRoWjCSP-97" target="sUTxGVXDvffoVRoWjCSP-101" edge="1">
          <mxGeometry width="50" height="50" relative="1" as="geometry">
            <mxPoint x="410" y="440" as="sourcePoint" />
            <mxPoint x="460" y="390" as="targetPoint" />
          </mxGeometry>
        </mxCell>
        <mxCell id="sUTxGVXDvffoVRoWjCSP-117" value="Completed Order" style="endArrow=classic;html=1;rounded=0;exitX=0.25;exitY=1;exitDx=0;exitDy=0;entryX=0.5;entryY=0;entryDx=0;entryDy=0;" parent="1" source="sUTxGVXDvffoVRoWjCSP-104" target="sUTxGVXDvffoVRoWjCSP-102" edge="1">
          <mxGeometry width="50" height="50" relative="1" as="geometry">
            <mxPoint x="410" y="440" as="sourcePoint" />
            <mxPoint x="460" y="390" as="targetPoint" />
          </mxGeometry>
        </mxCell>
        <mxCell id="sUTxGVXDvffoVRoWjCSP-118" value="Shipping Details" style="endArrow=classic;html=1;rounded=0;exitX=0;exitY=0.5;exitDx=0;exitDy=0;entryX=1;entryY=0.5;entryDx=0;entryDy=0;entryPerimeter=0;" parent="1" source="sUTxGVXDvffoVRoWjCSP-102" target="sUTxGVXDvffoVRoWjCSP-93" edge="1">
          <mxGeometry width="50" height="50" relative="1" as="geometry">
            <mxPoint x="410" y="440" as="sourcePoint" />
            <mxPoint x="460" y="390" as="targetPoint" />
          </mxGeometry>
        </mxCell>
        <mxCell id="sUTxGVXDvffoVRoWjCSP-119" value="Item Quantities" style="endArrow=classic;html=1;rounded=0;exitX=0.5;exitY=1;exitDx=0;exitDy=0;entryX=0.25;entryY=0;entryDx=0;entryDy=0;" parent="1" source="sUTxGVXDvffoVRoWjCSP-102" target="sUTxGVXDvffoVRoWjCSP-105" edge="1">
          <mxGeometry width="50" height="50" relative="1" as="geometry">
            <mxPoint x="410" y="440" as="sourcePoint" />
            <mxPoint x="460" y="390" as="targetPoint" />
          </mxGeometry>
        </mxCell>
        <mxCell id="sUTxGVXDvffoVRoWjCSP-120" value="Delivery Confirmation" style="endArrow=classic;html=1;rounded=0;exitX=0.5;exitY=0;exitDx=0;exitDy=0;exitPerimeter=0;entryX=0.5;entryY=1;entryDx=0;entryDy=0;entryPerimeter=0;" parent="1" source="sUTxGVXDvffoVRoWjCSP-93" target="sUTxGVXDvffoVRoWjCSP-91" edge="1">
          <mxGeometry width="50" height="50" relative="1" as="geometry">
            <mxPoint x="410" y="440" as="sourcePoint" />
            <mxPoint x="460" y="390" as="targetPoint" />
          </mxGeometry>
        </mxCell>
        <mxCell id="sUTxGVXDvffoVRoWjCSP-121" value="Order Confirmation" style="endArrow=classic;html=1;rounded=0;exitX=0;exitY=0.25;exitDx=0;exitDy=0;entryX=1;entryY=0.25;entryDx=0;entryDy=0;entryPerimeter=0;" parent="1" source="sUTxGVXDvffoVRoWjCSP-99" target="sUTxGVXDvffoVRoWjCSP-91" edge="1">
          <mxGeometry width="50" height="50" relative="1" as="geometry">
            <mxPoint x="410" y="440" as="sourcePoint" />
            <mxPoint x="460" y="390" as="targetPoint" />
          </mxGeometry>
        </mxCell>
        <mxCell id="sUTxGVXDvffoVRoWjCSP-122" value="" style="rounded=0;whiteSpace=wrap;html=1;fillColor=#f5f5f5;strokeColor=#666666;fontColor=#333333;" parent="1" vertex="1">
          <mxGeometry x="660" y="80" width="180" height="130" as="geometry" />
        </mxCell>
        <mxCell id="sUTxGVXDvffoVRoWjCSP-123" value="Legend:" style="text;html=1;strokeColor=none;fillColor=none;align=left;verticalAlign=middle;whiteSpace=wrap;rounded=0;fontStyle=1" parent="1" vertex="1">
          <mxGeometry x="670" y="90" width="60" height="20" as="geometry" />
        </mxCell>
        <mxCell id="sUTxGVXDvffoVRoWjCSP-124" value="" style="shape=ellipse;html=1;dashed=0;whitespace=wrap;aspect=fixed;perimeter=ellipsePerimeter;fillColor=#d5e8d4;strokeColor=#82b366;" parent="1" vertex="1">
          <mxGeometry x="670" y="120" width="20" height="20" as="geometry" />
        </mxCell>
        <mxCell id="sUTxGVXDvffoVRoWjCSP-125" value="Process" style="text;html=1;strokeColor=none;fillColor=none;align=left;verticalAlign=middle;whiteSpace=wrap;rounded=0;" parent="1" vertex="1">
          <mxGeometry x="700" y="120" width="60" height="20" as="geometry" />
        </mxCell>
        <mxCell id="sUTxGVXDvffoVRoWjCSP-126" value="" style="html=1;dashed=0;whitespace=wrap;shape=mxgraph.dfd.externalEntity;fillColor=#f5f5f5;strokeColor=#666666;fontColor=#333333;" parent="1" vertex="1">
          <mxGeometry x="670" y="150" width="20" height="20" as="geometry" />
        </mxCell>
        <mxCell id="sUTxGVXDvffoVRoWjCSP-127" value="External Entity" style="text;html=1;strokeColor=none;fillColor=none;align=left;verticalAlign=middle;whiteSpace=wrap;rounded=0;" parent="1" vertex="1">
          <mxGeometry x="700" y="150" width="90" height="20" as="geometry" />
        </mxCell>
        <mxCell id="sUTxGVXDvffoVRoWjCSP-128" value="" style="html=1;dashed=0;whitespace=wrap;shape=mxgraph.dfd.dataStore;fillColor=#dae8fc;strokeColor=#6c8ebf;" parent="1" vertex="1">
          <mxGeometry x="670" y="180" width="20" height="20" as="geometry" />
        </mxCell>
        <mxCell id="sUTxGVXDvffoVRoWjCSP-129" value="Data Store" style="text;html=1;strokeColor=none;fillColor=none;align=left;verticalAlign=middle;whiteSpace=wrap;rounded=0;" parent="1" vertex="1">
          <mxGeometry x="700" y="180" width="70" height="20" as="geometry" />
        </mxCell>
      </root>
    </mxGraphModel>
  </diagram>
</mxfile>
